<svg width="163" height="61" viewBox="0 0 163 61" fill="none" xmlns="http://www.w3.org/2000/svg">
<g clip-path="url(#clip0_1_13)">
<path fill-rule="evenodd" clip-rule="evenodd" d="M7.37 10.59C2.80964 15.8923 0.207951 22.5995 -1.44541e-06 29.59C-0.0605818 31.8144 0.130634 34.0386 0.569999 36.22C0.649999 36.6 0.719999 36.92 0.819999 37.32L0.847238 37.4291L0.847264 37.4292L0.847274 37.4293C0.938337 37.7943 1.0309 38.1654 1.14 38.52C1.26 38.91 1.38 39.3 1.51 39.69L1.55329 39.8201C1.66908 40.1685 1.78664 40.5221 1.92 40.86C1.99835 41.0585 2.07944 41.2515 2.16183 41.4477L2.16185 41.4477L2.16189 41.4478L2.16199 41.4481C2.23726 41.6273 2.31363 41.8091 2.39 42C2.50279 42.282 2.62553 42.5242 2.7512 42.7722C2.80379 42.876 2.85689 42.9808 2.91 43.09C3.09 43.46 3.27 43.83 3.46 44.19L4.06 45.28C4.12601 45.39 4.19201 45.504 4.25833 45.6185L4.25839 45.6186C4.40304 45.8683 4.54917 46.1206 4.7 46.34C4.7834 46.4613 4.86967 46.5855 4.95718 46.7115C5.10052 46.9178 5.24719 47.1289 5.39 47.34C5.53327 47.5518 5.68041 47.7519 5.83144 47.9574L5.83149 47.9574C5.9229 48.0818 6.01574 48.208 6.11 48.34C6.22873 48.5062 6.34746 48.6566 6.46726 48.8084L6.46729 48.8085L6.46731 48.8085L6.46734 48.8085L6.46741 48.8086C6.59982 48.9764 6.73353 49.1458 6.87 49.34C7.13 49.71 7.39 50.03 7.67 50.34C7.81 50.495 7.95 50.6475 8.09 50.8C8.23 50.9525 8.37 51.105 8.51 51.26C8.69667 51.4667 8.89223 51.6645 9.08779 51.8622L9.08829 51.8627C9.1859 51.9615 9.2835 52.0602 9.38 52.16L10.29 53.01C10.3784 53.0898 10.4643 53.1705 10.5501 53.251L10.5502 53.251C10.7654 53.4529 10.9798 53.6541 11.23 53.84C11.58 54.1 11.91 54.36 12.23 54.62C12.3987 54.757 12.584 54.8913 12.7655 55.0228L12.7656 55.0228C12.9284 55.1408 13.0881 55.2565 13.23 55.37C13.53 55.61 13.88 55.85 14.23 56.08L15.29 56.75L15.83 57.07C16.0181 57.1799 16.2117 57.28 16.41 57.37C16.5551 57.4264 16.706 57.4666 16.86 57.49C17.0389 57.5313 17.2107 57.5987 17.37 57.69C17.77 57.92 18.18 58.15 18.59 58.36C19 58.57 19.42 58.76 19.85 58.94C20.28 59.12 20.71 59.28 21.15 59.44C21.59 59.6 22.03 59.74 22.48 59.86L22.5747 59.8853C22.9919 59.9967 23.4023 60.1063 23.83 60.19L23.9096 60.2056C24.342 60.2903 24.7666 60.3735 25.2 60.43C25.5018 60.4694 25.8078 60.5001 26.1125 60.5307L26.1127 60.5307L26.1129 60.5308C26.2726 60.5468 26.4319 60.5628 26.59 60.58C27.05 60.63 27.5 60.63 27.97 60.63C28.1274 60.63 28.2837 60.6334 28.4393 60.6367H28.4393H28.4394H28.4395H28.4396C28.7483 60.6434 29.0542 60.6499 29.36 60.63C29.82 60.6 30.28 60.55 30.74 60.49C31.2 60.43 31.66 60.34 32.11 60.25C32.56 60.16 33.01 60.04 33.45 59.91C36.2105 59.1267 38.7267 57.655 40.7627 55.633C42.7987 53.611 44.2877 51.105 45.09 48.35C45.783 45.6317 45.6999 42.7734 44.85 40.1C44.7128 39.6697 44.555 39.24 44.397 38.8098L44.397 38.8096C43.8758 37.3902 43.3528 35.9657 43.56 34.5C42.9571 34.786 42.4265 35.2043 42.0075 35.7237C41.5885 36.2431 41.292 36.8502 41.14 37.5C40.9547 38.0987 40.8349 38.7154 40.7151 39.332L40.715 39.3321C40.5827 40.0131 40.4504 40.6939 40.23 41.35C39.6096 43.0698 38.4012 44.515 36.8183 45.4299C35.2354 46.3449 33.3799 46.6708 31.58 46.35C28.59 45.66 26.39 43.1 25.21 40.35C24.208 37.9467 23.8108 35.3344 24.0531 32.7419C24.2954 30.1494 25.1699 27.6559 26.6 25.48C24.8958 26.6585 23.4799 28.2069 22.4582 30.0096C21.4366 31.8122 20.8355 33.8224 20.7 35.89C20.4821 40.0344 21.6425 44.1344 24 47.55C21.0488 45.4531 18.8237 42.4893 17.6338 39.0701C16.4439 35.6509 16.3482 31.9461 17.36 28.47C18.5622 25.0191 20.783 22.0142 23.7289 19.852C26.6749 17.6899 30.2075 16.4722 33.86 16.36C29.0735 15.4613 24.1252 16.4581 20.06 19.14C17.754 20.6523 15.7896 22.63 14.2931 24.9463C12.7965 27.2626 11.8009 29.8662 11.37 32.59C10.9887 35.3084 11.1863 38.0767 11.9497 40.7135C12.7132 43.3502 14.0253 45.7958 15.8 47.89C12.9988 45.1918 10.8761 41.8687 9.60553 38.1927C8.335 34.5167 7.95273 30.5921 8.49 26.74C9.11672 22.8813 10.6378 19.2229 12.9317 16.0574C15.2255 12.8919 18.2284 10.3071 21.7 8.51C27.1748 5.81015 33.3631 4.9106 39.38 5.94C44.9409 6.84051 51.2602 11.6883 55.9456 15.2827L55.9468 15.2836L55.9485 15.2849L55.95 15.286L55.9524 15.2879C56.3116 15.5634 56.6611 15.8316 57 16.09C50.29 5.17 41.65 0.489997 32.29 -2.65054e-06C27.6095 -0.204375 22.9425 0.640534 18.6307 2.47287C14.3189 4.30521 10.4715 7.0786 7.37 10.59ZM54.2 26.78V53.25H61V41.68H66V37.17H61V31.12H66.51V26.78H54.2ZM73.73 53.09C72.6765 52.774 71.7313 52.1716 71 51.35C70.3403 50.5512 69.8596 49.6203 69.59 48.62C69.2818 47.4047 69.1372 46.1536 69.16 44.9V35.13C69.137 33.8797 69.2816 32.6319 69.59 31.42C69.8551 30.418 70.3364 29.4862 71 28.69C71.7238 27.8944 72.6501 27.3103 73.68 27C76.2899 26.2219 79.0701 26.2219 81.68 27C82.707 27.3303 83.6259 27.9314 84.34 28.74C85.0136 29.5325 85.5021 30.4651 85.77 31.47C86.0869 32.6805 86.235 33.929 86.21 35.18V44.9C86.235 46.1543 86.0869 47.4061 85.77 48.62C85.4977 49.6233 85.0097 50.555 84.34 51.35C83.6397 52.1512 82.7389 52.7517 81.73 53.09C79.118 53.8533 76.342 53.8533 73.73 53.09ZM77.73 49.18C78.0465 49.1978 78.3608 49.1175 78.63 48.95C78.8699 48.7876 79.0465 48.5474 79.13 48.27C79.2198 48.0069 79.2834 47.7356 79.32 47.46C79.3375 47.1569 79.3375 46.8531 79.32 46.55V33.47C79.3378 33.1669 79.3378 32.8631 79.32 32.56C79.2846 32.2842 79.2209 32.0128 79.13 31.75C79.041 31.4781 78.8654 31.2427 78.63 31.08C78.3589 30.9171 78.046 30.8372 77.73 30.85C77.4654 30.8432 77.2035 30.9053 76.97 31.03C76.7826 31.1223 76.6211 31.2598 76.5 31.43C76.3762 31.6242 76.2945 31.8423 76.26 32.07C76.2093 32.2904 76.1759 32.5144 76.16 32.74V47.27C76.1752 47.4957 76.2086 47.7197 76.26 47.94C76.2907 48.1687 76.3728 48.3875 76.5 48.58C76.6198 48.7564 76.7813 48.9007 76.97 49C77.1946 49.1198 77.4455 49.1817 77.7 49.18H77.73ZM89 26.78V53.25H95.68V41.9H99.12V53.25H105.91V26.78H99.17V37.25H95.73V26.78H89ZM113.08 53.09C112.06 52.7565 111.149 52.1556 110.44 51.35C109.77 50.5539 109.278 49.6228 109 48.62C108.692 47.4047 108.547 46.1536 108.57 44.9V35.13C108.547 33.8797 108.692 32.6319 109 31.42C109.265 30.418 109.746 29.4862 110.41 28.69C111.111 27.91 112.004 27.3273 113 27C115.61 26.2219 118.39 26.2219 121 27C122.027 27.3303 122.946 27.9314 123.66 28.74C124.334 29.5325 124.822 30.4651 125.09 31.47C125.407 32.6805 125.555 33.929 125.53 35.18V44.9C125.555 46.1543 125.407 47.4061 125.09 48.62C124.818 49.6233 124.33 50.555 123.66 51.35C122.968 52.1468 122.078 52.747 121.08 53.09C118.468 53.8533 115.692 53.8533 113.08 53.09ZM117.08 49.18C117.398 49.2171 117.719 49.1542 118 49C118.24 48.8376 118.416 48.5974 118.5 48.32C118.59 48.0569 118.653 47.7856 118.69 47.51C118.708 47.2069 118.708 46.9031 118.69 46.6V33.47C118.708 33.1669 118.708 32.8631 118.69 32.56C118.655 32.2842 118.591 32.0128 118.5 31.75C118.411 31.4781 118.235 31.2427 118 31.08C117.729 30.9171 117.416 30.8372 117.1 30.85C116.835 30.8432 116.573 30.9053 116.34 31.03C116.153 31.1223 115.991 31.2598 115.87 31.43C115.746 31.6242 115.664 31.8423 115.63 32.07C115.579 32.2904 115.546 32.5144 115.53 32.74V47.27C115.545 47.4957 115.579 47.7197 115.63 47.94C115.661 48.1687 115.743 48.3875 115.87 48.58C115.99 48.7564 116.151 48.9007 116.34 49C116.559 49.1166 116.802 49.1784 117.05 49.18H117.08ZM127.3 26.78L130.24 53.25L136.34 53.24L138.08 38.3L140 53.24H146L149 26.77H143.29L142 41L140.28 26.78H135.86L134.27 41.15L133 26.78H127.3Z" fill="url(#paint0_radial_1_13)"/>
<path d="M-1.44541e-06 29.59L-0.509778 29.5748L-0.509812 29.5761L-1.44541e-06 29.59ZM7.37 10.59L6.98772 10.2523L6.98334 10.2574L7.37 10.59ZM0.569999 36.22L0.0700194 36.3207L0.0709381 36.3251L0.569999 36.22ZM0.819999 37.32L1.31482 37.1965L1.31477 37.1963L0.819999 37.32ZM0.847238 37.4291L0.352417 37.5526L0.352871 37.5544L0.847238 37.4291ZM0.847264 37.4292L1.34482 37.3165L1.34163 37.3039L0.847264 37.4292ZM0.847274 37.4293L0.349764 37.542L0.352436 37.5527L0.847274 37.4293ZM1.14 38.52L1.62745 38.37L1.62745 38.37L1.14 38.52ZM1.51 39.69L1.99392 39.529L1.99383 39.5287L1.51 39.69ZM1.55329 39.8201L2.03725 39.6592L2.0372 39.6591L1.55329 39.8201ZM1.92 40.86L1.44562 41.0473L1.44562 41.0473L1.92 40.86ZM2.16183 41.4477L2.63436 41.2557L2.63203 41.2502L2.16183 41.4477ZM2.16185 41.4477L2.63492 41.2572L2.63434 41.2558L2.16185 41.4477ZM2.16189 41.4478L1.68871 41.6384L1.69305 41.6486L2.16189 41.4478ZM2.16199 41.4481L2.6322 41.2505L2.63083 41.2473L2.16199 41.4481ZM2.39 42L2.86352 41.8106L2.39 42ZM2.7512 42.7722L3.20613 42.5417L3.20613 42.5417L2.7512 42.7722ZM2.91 43.09L2.45139 43.3131L2.45139 43.3131L2.91 43.09ZM3.46 44.19L3.00889 44.4281L3.01322 44.4359L3.46 44.19ZM4.06 45.28L3.61321 45.5259L3.61779 45.5342L3.62268 45.5424L4.06 45.28ZM4.25833 45.6185L4.70422 45.3708L4.69965 45.3629L4.25833 45.6185ZM4.25839 45.6186L3.8125 45.8663L3.81707 45.8742L4.25839 45.6186ZM4.7 46.34L5.12026 46.0511L5.12026 46.0511L4.7 46.34ZM4.95718 46.7115L4.53834 47.0024L4.53834 47.0024L4.95718 46.7115ZM5.39 47.34L5.81242 47.0542L5.81242 47.0542L5.39 47.34ZM5.83144 47.9574L6.24353 47.6569L6.24234 47.6553L5.83144 47.9574ZM5.83149 47.9574L5.4194 48.2579L5.42059 48.2595L5.83149 47.9574ZM6.11 48.34L5.69499 48.6364L5.695 48.6364L6.11 48.34ZM6.46726 48.8084L6.87539 48.5023L6.86759 48.4925L6.46726 48.8084ZM6.46734 48.8085L6.05926 49.1146L6.06545 49.1225L6.46734 48.8085ZM6.46741 48.8086L6.06551 49.1226L6.06709 49.1246L6.46741 48.8086ZM6.87 49.34L6.45272 49.6332L6.45272 49.6332L6.87 49.34ZM7.67 50.34L7.29153 50.6818L7.29153 50.6818L7.67 50.34ZM8.09 50.8L7.71431 51.1449L7.71431 51.1449L8.09 50.8ZM8.51 51.26L8.13153 51.6018L8.13153 51.6018L8.51 51.26ZM9.08779 51.8622L9.45047 51.5037L9.45045 51.5037L9.08779 51.8622ZM9.08829 51.8627L8.72561 52.2213L8.72563 52.2213L9.08829 51.8627ZM9.38 52.16L9.01331 52.5145L9.02236 52.5238L9.03187 52.5327L9.38 52.16ZM10.29 53.01L9.94182 53.3827L9.94815 53.3885L10.29 53.01ZM10.5501 53.251L10.9033 52.883L10.8991 52.8791L10.5501 53.251ZM10.5502 53.251L10.197 53.619L10.2012 53.623L10.5502 53.251ZM11.23 53.84L10.9259 54.2494L10.9259 54.2494L11.23 53.84ZM12.23 54.62L11.9084 55.0158L11.9084 55.0158L12.23 54.62ZM12.7655 55.0228L13.094 54.6327L13.0798 54.6207L13.0647 54.6098L12.7655 55.0228ZM12.7656 55.0228L12.4371 55.4129L12.4513 55.4249L12.4664 55.4358L12.7656 55.0228ZM13.23 55.37L13.5486 54.9718L13.5486 54.9718L13.23 55.37ZM14.23 56.08L13.9499 56.5063L13.9575 56.5111L14.23 56.08ZM15.29 56.75L15.0175 57.1811L15.0237 57.185L15.03 57.1887L15.29 56.75ZM15.83 57.07L15.57 57.5088L15.5727 57.5104L15.83 57.07ZM16.41 57.37L16.1993 57.8344L16.2121 57.8402L16.2253 57.8454L16.41 57.37ZM16.86 57.49L16.9746 56.9931L16.9557 56.9887L16.9365 56.9858L16.86 57.49ZM17.37 57.69L17.6242 57.2479L17.6237 57.2476L17.37 57.69ZM21.15 59.44L21.3243 58.9607L21.3243 58.9607L21.15 59.44ZM22.48 59.86L22.6115 59.3673L22.6114 59.3672L22.48 59.86ZM22.5747 59.8853L22.7063 59.3925L22.7062 59.3925L22.5747 59.8853ZM23.83 60.19L23.928 59.6895L23.9279 59.6895L23.83 60.19ZM23.9096 60.2056L24.0076 59.7051L24.0076 59.7051L23.9096 60.2056ZM25.2 60.43L25.134 60.9357L25.134 60.9357L25.2 60.43ZM26.1125 60.5307L26.0616 61.0382L26.0689 61.0389L26.0762 61.0394L26.1125 60.5307ZM26.1127 60.5307L26.176 60.0247L26.1625 60.023L26.149 60.022L26.1127 60.5307ZM26.1129 60.5308L26.0496 61.037L26.0619 61.0382L26.1129 60.5308ZM26.59 60.58L26.5349 61.087L26.5349 61.087L26.59 60.58ZM28.4393 60.6367L28.4283 61.1467H28.4393V60.6367ZM28.4396 60.6367L28.4506 60.1267H28.4396V60.6367ZM29.36 60.63L29.3268 60.1211L29.3268 60.1211L29.36 60.63ZM30.74 60.49L30.806 60.9957L30.806 60.9957L30.74 60.49ZM33.45 59.91L33.3108 59.4193L33.3055 59.4209L33.45 59.91ZM40.7627 55.633L41.1221 55.9949L41.1221 55.9949L40.7627 55.633ZM45.09 48.35L45.5797 48.4926L45.5821 48.4843L45.5842 48.476L45.09 48.35ZM44.85 40.1L45.336 39.9455L45.3359 39.945L44.85 40.1ZM44.397 38.8098L44.8758 38.634L44.8746 38.6307L44.397 38.8098ZM44.397 38.8096L43.9182 38.9854L43.9194 38.9887L44.397 38.8096ZM43.56 34.5L44.065 34.5714L44.1976 33.633L43.3414 34.0392L43.56 34.5ZM41.14 37.5L41.6272 37.6508L41.6325 37.6336L41.6366 37.6162L41.14 37.5ZM40.7151 39.332L41.2098 39.4557L41.2131 39.4425L41.2157 39.4292L40.7151 39.332ZM40.715 39.3321L40.2203 39.2084L40.217 39.2215L40.2144 39.2348L40.715 39.3321ZM40.23 41.35L40.7099 41.5231L40.7134 41.5124L40.23 41.35ZM31.58 46.35L31.4653 46.8469L31.4779 46.8498L31.4905 46.8521L31.58 46.35ZM25.21 40.35L24.7392 40.5463L24.7413 40.5511L25.21 40.35ZM24.0531 32.7419L24.5609 32.7894L24.5609 32.7894L24.0531 32.7419ZM26.6 25.48L27.0262 25.7601L28.4657 23.5698L26.3099 25.0605L26.6 25.48ZM22.4582 30.0096L22.9019 30.261L22.9019 30.261L22.4582 30.0096ZM20.7 35.89L20.1911 35.8566L20.1907 35.8632L20.7 35.89ZM24 47.55L23.7046 47.9657L26.0634 49.6417L24.4197 47.2603L24 47.55ZM17.6338 39.0701L18.1155 38.9025L18.1155 38.9025L17.6338 39.0701ZM17.36 28.47L16.8784 28.3022L16.874 28.3147L16.8703 28.3275L17.36 28.47ZM23.7289 19.852L24.0307 20.2632L24.0307 20.2632L23.7289 19.852ZM33.86 16.36L33.8757 16.8698L38.5703 16.7255L33.9541 15.8588L33.86 16.36ZM20.06 19.14L20.3397 19.5665L20.3408 19.5657L20.06 19.14ZM14.2931 24.9463L13.8647 24.6695L13.8647 24.6695L14.2931 24.9463ZM11.37 32.59L10.8662 32.5103L10.8649 32.5192L11.37 32.59ZM15.8 47.89L15.4462 48.2573L16.1891 47.5603L15.8 47.89ZM9.60553 38.1927L9.12351 38.3593L9.12351 38.3593L9.60553 38.1927ZM8.49 26.74L7.98647 26.6582L7.98489 26.6695L8.49 26.74ZM12.9317 16.0574L12.5187 15.7581L12.5187 15.7581L12.9317 16.0574ZM21.7 8.51L21.4744 8.0525L21.4655 8.05708L21.7 8.51ZM39.38 5.94L39.294 6.44271L39.2985 6.44344L39.38 5.94ZM55.9456 15.2827L55.6352 15.6873L55.636 15.688L55.9456 15.2827ZM55.9468 15.2836L56.2567 14.8785L56.2564 14.8783L55.9468 15.2836ZM55.9485 15.2849L56.2587 14.8801L56.2584 14.8799L55.9485 15.2849ZM55.95 15.286L56.2607 14.8816L56.2602 14.8812L55.95 15.286ZM55.9524 15.2879L55.6417 15.6923L55.642 15.6926L55.9524 15.2879ZM57 16.09L56.6907 16.4955L58.8681 18.156L57.4345 15.823L57 16.09ZM32.29 -2.65054e-06L32.3167 -0.509324L32.3122 -0.509517L32.29 -2.65054e-06ZM18.6307 2.47287L18.8302 2.94225L18.8302 2.94225L18.6307 2.47287ZM54.2 53.25H53.69V53.76H54.2V53.25ZM54.2 26.78V26.27H53.69V26.78H54.2ZM61 53.25V53.76H61.51V53.25H61ZM61 41.68V41.17H60.49V41.68H61ZM66 41.68V42.19H66.51V41.68H66ZM66 37.17H66.51V36.66H66V37.17ZM61 37.17H60.49V37.68H61V37.17ZM61 31.12V30.61H60.49V31.12H61ZM66.51 31.12V31.63H67.02V31.12H66.51ZM66.51 26.78H67.02V26.27H66.51V26.78ZM71 51.35L70.6068 51.6747L70.6128 51.682L70.6191 51.6891L71 51.35ZM73.73 53.09L73.5835 53.5785L73.5869 53.5795L73.73 53.09ZM69.59 48.62L69.0956 48.7454L69.0976 48.7527L69.59 48.62ZM69.16 44.9L69.67 44.9093V44.9H69.16ZM69.16 35.13H69.6701L69.6699 35.1206L69.16 35.13ZM69.59 31.42L69.0969 31.2896L69.0957 31.2942L69.59 31.42ZM71 28.69L70.6228 28.3468L70.6153 28.355L70.6082 28.3635L71 28.69ZM73.68 27L73.5343 26.5113L73.5329 26.5117L73.68 27ZM81.68 27L81.8362 26.5144L81.8257 26.5113L81.68 27ZM84.34 28.74L84.7287 28.4097L84.7223 28.4024L84.34 28.74ZM85.77 31.47L86.2634 31.3408L86.2628 31.3386L85.77 31.47ZM86.21 35.18L85.7 35.1698V35.18H86.21ZM86.21 44.9H85.6999L85.7001 44.9102L86.21 44.9ZM85.77 48.62L86.2622 48.7536L86.2634 48.7488L85.77 48.62ZM84.34 51.35L84.724 51.6857L84.7301 51.6786L84.34 51.35ZM81.73 53.09L81.8731 53.5795L81.8827 53.5767L81.8921 53.5735L81.73 53.09ZM78.63 48.95L78.8994 49.383L78.9078 49.3778L78.9159 49.3723L78.63 48.95ZM77.73 49.18L77.7586 48.6708L77.7443 48.67H77.73V49.18ZM79.13 48.27L78.6473 48.1053L78.6443 48.1141L78.6416 48.123L79.13 48.27ZM79.32 47.46L79.8256 47.5271L79.8281 47.5083L79.8291 47.4894L79.32 47.46ZM79.32 46.55H78.81V46.5647L78.8108 46.5794L79.32 46.55ZM79.32 33.47L78.8109 33.4402L78.81 33.4551V33.47H79.32ZM79.32 32.56L79.8291 32.5302L79.8281 32.5125L79.8258 32.495L79.32 32.56ZM79.13 31.75L78.6452 31.9087L78.648 31.9167L79.13 31.75ZM78.63 31.08L78.92 30.6605L78.9066 30.6512L78.8926 30.6428L78.63 31.08ZM77.73 30.85L77.717 31.3598L77.7338 31.3603L77.7507 31.3596L77.73 30.85ZM76.97 31.03L77.1954 31.4875L77.2029 31.4838L77.2103 31.4798L76.97 31.03ZM76.5 31.43L76.0844 31.1344L76.0769 31.145L76.0699 31.1559L76.5 31.43ZM76.26 32.07L76.757 32.1842L76.7614 32.1654L76.7643 32.1463L76.26 32.07ZM76.16 32.74L75.6513 32.7041L75.65 32.7221V32.74H76.16ZM76.16 47.27H75.65V47.2871L75.6512 47.3043L76.16 47.27ZM76.26 47.94L76.7655 47.8721L76.7622 47.8479L76.7567 47.8242L76.26 47.94ZM76.5 48.58L76.0745 48.8612L76.0781 48.8666L76.5 48.58ZM76.97 49L77.21 48.55L77.2075 48.5487L76.97 49ZM77.7 49.18L77.7 48.67L77.6967 48.67L77.7 49.18ZM89 53.25H88.49V53.76H89V53.25ZM89 26.78V26.27H88.49V26.78H89ZM95.68 53.25V53.76H96.19V53.25H95.68ZM95.68 41.9V41.39H95.17V41.9H95.68ZM99.12 41.9H99.63V41.39H99.12V41.9ZM99.12 53.25H98.61V53.76H99.12V53.25ZM105.91 53.25V53.76H106.42V53.25H105.91ZM105.91 26.78H106.42V26.27H105.91V26.78ZM99.17 26.78V26.27H98.66V26.78H99.17ZM99.17 37.25V37.76H99.68V37.25H99.17ZM95.73 37.25H95.22V37.76H95.73V37.25ZM95.73 26.78H96.24V26.27H95.73V26.78ZM110.44 51.35L110.05 51.6786L110.057 51.6868L110.44 51.35ZM113.08 53.09L112.921 53.5747L112.929 53.5773L112.937 53.5795L113.08 53.09ZM109 48.62L108.506 48.7454L108.509 48.7565L109 48.62ZM108.57 44.9L109.08 44.9093V44.9H108.57ZM108.57 35.13H109.08L109.08 35.1206L108.57 35.13ZM109 31.42L108.507 31.2896L108.506 31.2942L109 31.42ZM110.41 28.69L110.031 28.3491L110.024 28.3562L110.018 28.3635L110.41 28.69ZM113 27L112.854 26.5111L112.841 26.5155L113 27ZM121 27L121.156 26.5144L121.146 26.5113L121 27ZM123.66 28.74L124.049 28.4097L124.042 28.4024L123.66 28.74ZM125.09 31.47L125.583 31.3408L125.583 31.3386L125.09 31.47ZM125.53 35.18L125.02 35.1698V35.18H125.53ZM125.53 44.9H125.02L125.02 44.9102L125.53 44.9ZM125.09 48.62L125.582 48.7536L125.583 48.7488L125.09 48.62ZM123.66 51.35L124.045 51.6845L124.05 51.6786L123.66 51.35ZM121.08 53.09L121.223 53.5795L121.234 53.5762L121.246 53.5723L121.08 53.09ZM118 49L118.246 49.447L118.266 49.4356L118.286 49.4223L118 49ZM117.08 49.18L117.139 48.6734L117.11 48.67H117.08V49.18ZM118.5 48.32L118.017 48.1553L118.014 48.1641L118.012 48.173L118.5 48.32ZM118.69 47.51L119.196 47.5771L119.198 47.5583L119.199 47.5394L118.69 47.51ZM118.69 46.6H118.18V46.6147L118.181 46.6294L118.69 46.6ZM118.69 33.47L118.181 33.4402L118.18 33.4551V33.47H118.69ZM118.69 32.56L119.199 32.5302L119.198 32.5125L119.196 32.495L118.69 32.56ZM118.5 31.75L118.015 31.9087L118.018 31.9167L118.5 31.75ZM118 31.08L118.29 30.6605L118.277 30.6512L118.263 30.6428L118 31.08ZM117.1 30.85L117.087 31.3598L117.104 31.3603L117.121 31.3596L117.1 30.85ZM116.34 31.03L116.565 31.4875L116.573 31.4838L116.58 31.4798L116.34 31.03ZM115.87 31.43L115.454 31.1344L115.447 31.145L115.44 31.1559L115.87 31.43ZM115.63 32.07L116.127 32.1842L116.131 32.1654L116.134 32.1463L115.63 32.07ZM115.53 32.74L115.021 32.7041L115.02 32.7221V32.74H115.53ZM115.53 47.27H115.02V47.2871L115.021 47.3043L115.53 47.27ZM115.63 47.94L116.135 47.8721L116.132 47.8479L116.127 47.8242L115.63 47.94ZM115.87 48.58L115.445 48.8612L115.448 48.8666L115.87 48.58ZM116.34 49L116.58 48.55L116.577 48.5487L116.34 49ZM117.05 49.18L117.047 49.69H117.05V49.18ZM130.24 53.25L129.733 53.3063L129.784 53.7608L130.241 53.76L130.24 53.25ZM127.3 26.78V26.27H126.73L126.793 26.8363L127.3 26.78ZM136.34 53.24L136.341 53.75L136.794 53.7493L136.847 53.299L136.34 53.24ZM138.08 38.3L138.586 38.235L138.055 34.1052L137.573 38.241L138.08 38.3ZM140 53.24L139.494 53.305L139.551 53.75H140V53.24ZM146 53.24V53.75H146.455L146.507 53.2974L146 53.24ZM149 26.77L149.507 26.8274L149.571 26.26H149V26.77ZM143.29 26.77V26.26H142.824L142.782 26.724L143.29 26.77ZM142 41L141.494 41.0612L142.073 45.8477L142.508 41.046L142 41ZM140.28 26.78L140.786 26.7188L140.732 26.27H140.28V26.78ZM135.86 26.78V26.27H135.403L135.353 26.7239L135.86 26.78ZM134.27 41.15L133.762 41.1949L134.777 41.2061L134.27 41.15ZM133 26.78L133.508 26.7351L133.467 26.27H133V26.78ZM0.509773 29.6052C0.714252 22.7314 3.27248 16.1362 7.75666 10.9226L6.98334 10.2574C2.34681 15.6483 -0.298349 22.4675 -0.509776 29.5748L0.509773 29.6052ZM1.06996 36.1193C0.638187 33.9756 0.450276 31.7899 0.50981 29.6039L-0.509812 29.5761C-0.57144 31.839 -0.37692 34.1016 0.0700385 36.3207L1.06996 36.1193ZM1.31477 37.1963C1.21698 36.8051 1.14847 36.4921 1.06906 36.1149L0.0709381 36.3251C0.15153 36.7079 0.223016 37.0348 0.325226 37.4437L1.31477 37.1963ZM1.34205 37.3056L1.31482 37.1965L0.325181 37.4435L0.35242 37.5526L1.34205 37.3056ZM1.34163 37.3039L1.3416 37.3038L0.352871 37.5544L0.352898 37.5545L1.34163 37.3039ZM1.34467 37.3166L1.34466 37.3165L0.34987 37.5419L0.34988 37.542L1.34467 37.3166ZM1.62745 38.37C1.5231 38.0309 1.43379 37.6734 1.34211 37.3058L0.352436 37.5527C0.442879 37.9153 0.5387 38.3 0.652551 38.67L1.62745 38.37ZM1.99383 39.5287C1.86601 39.1453 1.74773 38.7609 1.62745 38.37L0.652551 38.67C0.77227 39.0591 0.893986 39.4547 1.02617 39.8513L1.99383 39.5287ZM2.0372 39.6591L1.99392 39.529L1.02608 39.851L1.06937 39.9811L2.0372 39.6591ZM2.39438 40.6727C2.26706 40.3502 2.15386 40.0101 2.03725 39.6592L1.06932 39.981C1.18431 40.3269 1.30622 40.6941 1.44562 41.0473L2.39438 40.6727ZM2.63203 41.2502C2.54931 41.0532 2.47037 40.8653 2.39438 40.6727L1.44562 41.0473C1.52634 41.2517 1.60957 41.4498 1.69162 41.6452L2.63203 41.2502ZM2.63434 41.2558L2.63433 41.2557L1.68933 41.6396L1.68935 41.6397L2.63434 41.2558ZM2.63496 41.2573L2.63491 41.2572L1.68878 41.6383L1.68882 41.6384L2.63496 41.2573ZM2.63083 41.2473L2.63073 41.2471L1.69305 41.6486L1.69315 41.6488L2.63083 41.2473ZM2.86352 41.8106C2.78528 41.615 2.70724 41.4292 2.63219 41.2505L1.69178 41.6456C1.76729 41.8253 1.84199 42.0032 1.91648 42.1894L2.86352 41.8106ZM3.20613 42.5417C3.07956 42.2919 2.96677 42.0687 2.86352 41.8106L1.91648 42.1894C2.03882 42.4953 2.1715 42.7565 2.29626 43.0027L3.20613 42.5417ZM3.36861 42.8669C3.31341 42.7534 3.25846 42.645 3.20613 42.5417L2.29626 43.0027C2.34911 43.107 2.40038 43.2082 2.45139 43.3131L3.36861 42.8669ZM3.91103 43.9519C3.72561 43.6006 3.54925 43.2382 3.36861 42.8669L2.45139 43.3131C2.63075 43.6818 2.81439 44.0594 3.00896 44.428L3.91103 43.9519ZM4.50678 45.0341L3.90678 43.9441L3.01322 44.4359L3.61321 45.5259L4.50678 45.0341ZM4.69965 45.3629C4.6337 45.249 4.5657 45.1316 4.49732 45.0176L3.62268 45.5424C3.68631 45.6484 3.75032 45.7589 3.81701 45.8741L4.69965 45.3629ZM4.70421 45.3709L4.70415 45.3708L3.81251 45.8662L3.81257 45.8663L4.70421 45.3709ZM5.12026 46.0511C4.9827 45.851 4.84665 45.6167 4.69971 45.363L3.81707 45.8742C3.95943 46.12 4.11564 46.3902 4.27974 46.6289L5.12026 46.0511ZM5.37603 46.4205C5.28838 46.2943 5.20283 46.1712 5.12026 46.0511L4.27974 46.6289C4.36397 46.7514 4.45096 46.8767 4.53834 47.0024L5.37603 46.4205ZM5.81242 47.0542C5.66754 46.8401 5.51906 46.6264 5.37603 46.4205L4.53834 47.0024C4.68198 47.2092 4.82684 47.4177 4.96757 47.6258L5.81242 47.0542ZM6.24234 47.6553C6.09041 47.4486 5.94918 47.2564 5.81242 47.0542L4.96757 47.6258C5.11735 47.8472 5.27041 48.0552 5.42054 48.2594L6.24234 47.6553ZM6.24357 47.6569L6.24352 47.6569L5.41936 48.2578L5.41941 48.2579L6.24357 47.6569ZM6.525 48.0436C6.4284 47.9083 6.33352 47.7793 6.24239 47.6553L5.42059 48.2595C5.51229 48.3842 5.60309 48.5078 5.69499 48.6364L6.525 48.0436ZM6.86759 48.4925C6.74687 48.3395 6.63556 48.1983 6.525 48.0436L5.695 48.6364C5.8219 48.8141 5.94805 48.9738 6.06693 49.1244L6.86759 48.4925ZM6.87529 48.5025L6.87526 48.5024L6.05926 49.1144L6.05929 49.1145L6.87529 48.5025ZM6.87531 48.5025L6.87529 48.5025L6.05929 49.1145L6.05931 49.1145L6.87531 48.5025ZM6.87534 48.5025L6.87531 48.5025L6.05931 49.1145L6.05934 49.1145L6.87534 48.5025ZM6.8693 48.4946L6.86923 48.4946L6.06545 49.1225L6.06552 49.1226L6.8693 48.4946ZM7.28728 49.0468C7.1415 48.8393 6.99933 48.6594 6.86774 48.4927L6.06709 49.1246C6.2003 49.2934 6.32556 49.4523 6.45272 49.6332L7.28728 49.0468ZM8.04847 49.9982C7.78097 49.702 7.53419 49.3981 7.28728 49.0468L6.45272 49.6332C6.72581 50.0218 6.99903 50.358 7.29153 50.6818L8.04847 49.9982ZM8.46569 50.4551C8.32547 50.3024 8.18686 50.1514 8.04847 49.9981L7.29153 50.6818C7.43314 50.8386 7.57453 50.9926 7.71431 51.1449L8.46569 50.4551ZM8.88847 50.9181C8.74686 50.7614 8.60547 50.6074 8.46569 50.4551L7.71431 51.1449C7.85453 51.2976 7.99314 51.4486 8.13153 51.6018L8.88847 50.9181ZM9.45045 51.5037C9.25355 51.3045 9.06614 51.1149 8.88847 50.9181L8.13153 51.6018C8.3272 51.8185 8.53092 52.0244 8.72514 52.2208L9.45045 51.5037ZM9.45097 51.5042L9.45047 51.5037L8.72512 52.2208L8.72561 52.2213L9.45097 51.5042ZM9.74668 51.8055C9.64785 51.7033 9.54822 51.6025 9.45095 51.5042L8.72563 52.2213C8.82357 52.3204 8.91915 52.417 9.01331 52.5145L9.74668 51.8055ZM10.6381 52.6373L9.72813 51.7873L9.03187 52.5327L9.94187 53.3827L10.6381 52.6373ZM10.8991 52.8791C10.8138 52.7991 10.7244 52.7151 10.6318 52.6315L9.94815 53.3885C10.0323 53.4645 10.1148 53.5418 10.2012 53.6229L10.8991 52.8791ZM10.9034 52.8831L10.9033 52.8831L10.1969 53.6189L10.197 53.6189L10.9034 52.8831ZM11.5341 53.4306C11.311 53.2648 11.117 53.0835 10.8992 52.8791L10.2012 53.623C10.4137 53.8224 10.6486 54.0434 10.9259 54.2494L11.5341 53.4306ZM12.5516 54.2242C12.2276 53.9609 11.8916 53.6961 11.5341 53.4306L10.9259 54.2494C11.2684 54.5039 11.5924 54.7591 11.9084 55.0158L12.5516 54.2242ZM13.0647 54.6098C12.8809 54.4766 12.7074 54.3507 12.5516 54.2242L11.9084 55.0158C12.09 55.1634 12.2871 55.306 12.4663 55.4358L13.0647 54.6098ZM13.0941 54.6327L13.094 54.6327L12.437 55.4129L12.4371 55.4129L13.0941 54.6327ZM13.5486 54.9718C13.3954 54.8492 13.2253 54.7261 13.0648 54.6098L12.4664 55.4358C12.6315 55.5555 12.7809 55.6638 12.9114 55.7682L13.5486 54.9718ZM14.5101 55.6538C14.1636 55.4261 13.8296 55.1965 13.5486 54.9718L12.9114 55.7682C13.2304 56.0235 13.5964 56.2739 13.9499 56.5062L14.5101 55.6538ZM15.5625 56.3189L14.5025 55.6489L13.9575 56.5111L15.0175 57.1811L15.5625 56.3189ZM16.09 56.6312L15.55 56.3112L15.03 57.1887L15.57 57.5087L16.09 56.6312ZM16.6207 56.9056C16.4383 56.8228 16.2602 56.7307 16.0873 56.6296L15.5727 57.5104C15.7759 57.629 15.985 57.7372 16.1993 57.8344L16.6207 56.9056ZM16.9365 56.9858C16.8196 56.968 16.705 56.9375 16.5947 56.8946L16.2253 57.8454C16.4053 57.9153 16.5925 57.9653 16.7835 57.9942L16.9365 56.9858ZM17.6237 57.2476C17.421 57.1313 17.2023 57.0456 16.9746 56.9931L16.7454 57.9869C16.8755 58.017 17.0004 58.066 17.1163 58.1324L17.6237 57.2476ZM18.8225 57.9061C18.4234 57.7017 18.0217 57.4764 17.6242 57.2479L17.1158 58.1321C17.5183 58.3636 17.9366 58.5983 18.3575 58.8139L18.8225 57.9061ZM20.0469 58.4695C19.6256 58.2932 19.218 58.1086 18.8225 57.9061L18.3575 58.8139C18.782 59.0314 19.2144 59.2268 19.6531 59.4104L20.0469 58.4695ZM21.3243 58.9607C20.8858 58.8013 20.4652 58.6446 20.0469 58.4695L19.6531 59.4104C20.0948 59.5953 20.5342 59.7587 20.9757 59.9193L21.3243 58.9607ZM22.6114 59.3672C22.177 59.2514 21.7513 59.116 21.3243 58.9607L20.9757 59.9193C21.4287 60.084 21.883 60.2286 22.3486 60.3528L22.6114 59.3672ZM22.7062 59.3925L22.6115 59.3673L22.3485 60.3527L22.4432 60.378L22.7062 59.3925ZM23.9279 59.6895C23.52 59.6097 23.1261 59.5047 22.7063 59.3925L22.4431 60.378C22.8578 60.4888 23.2847 60.603 23.7321 60.6905L23.9279 59.6895ZM24.0076 59.7051L23.928 59.6895L23.732 60.6905L23.8116 60.7061L24.0076 59.7051ZM25.266 59.9243C24.8513 59.8702 24.4427 59.7903 24.0076 59.7051L23.8116 60.7061C24.2413 60.7903 24.6818 60.8767 25.134 60.9357L25.266 59.9243ZM26.1635 60.0233C25.8575 59.9925 25.559 59.9625 25.266 59.9243L25.134 60.9357C25.4445 60.9762 25.7581 61.0077 26.0616 61.0382L26.1635 60.0233ZM26.149 60.022L26.1489 60.022L26.0762 61.0394L26.0764 61.0394L26.149 60.022ZM26.1761 60.0247L26.176 60.0247L26.0494 61.0368L26.0496 61.0368L26.1761 60.0247ZM26.6451 60.073C26.4846 60.0555 26.3232 60.0393 26.1639 60.0233L26.0619 61.0382C26.2219 61.0543 26.3792 61.0701 26.5349 61.087L26.6451 60.073ZM27.97 60.12C27.4956 60.12 27.0731 60.1195 26.6451 60.073L26.5349 61.087C27.0269 61.1405 27.5044 61.14 27.97 61.14V60.12ZM28.4502 60.1268C28.2956 60.1235 28.1338 60.12 27.97 60.12V61.14C28.121 61.14 28.2719 61.1432 28.4283 61.1466L28.4502 60.1268ZM28.4393 60.1267H28.4393V61.1467H28.4393V60.1267ZM28.4394 60.1267H28.4393V61.1467H28.4394V60.1267ZM28.4395 60.1267H28.4394V61.1467H28.4395V60.1267ZM28.4396 60.1267H28.4395V61.1467H28.4396V60.1267ZM29.3268 60.1211C29.0467 60.1393 28.7631 60.1336 28.4506 60.1268L28.4286 61.1466C28.7336 61.1532 29.0616 61.1605 29.3932 61.1389L29.3268 60.1211ZM30.674 59.9843C30.2209 60.0434 29.7724 60.092 29.3268 60.1211L29.3932 61.1389C29.8676 61.108 30.3391 61.0566 30.806 60.9957L30.674 59.9843ZM32.01 59.7499C31.5592 59.8401 31.1148 59.9268 30.674 59.9843L30.806 60.9957C31.2852 60.9332 31.7608 60.8399 32.21 60.7501L32.01 59.7499ZM33.3055 59.4209C32.8735 59.5485 32.4395 59.664 32.01 59.7499L32.21 60.7501C32.6805 60.656 33.1465 60.5315 33.5945 60.3991L33.3055 59.4209ZM40.4033 55.2711C38.4286 57.2323 35.9881 58.6596 33.3108 59.4194L33.5892 60.4006C36.4328 59.5937 39.0248 58.0777 41.1221 55.9949L40.4033 55.2711ZM44.6003 48.2074C43.8222 50.8794 42.378 53.31 40.4033 55.2711L41.1221 55.9949C43.2193 53.912 44.7532 51.3305 45.5797 48.4926L44.6003 48.2074ZM44.364 40.2545C45.1849 42.8371 45.2653 45.5981 44.5958 48.224L45.5842 48.476C46.3008 45.6652 46.2148 42.7098 45.336 39.9455L44.364 40.2545ZM43.9183 38.9856C44.0769 39.4176 44.2308 39.8369 44.3641 40.255L45.3359 39.945C45.1948 39.5025 45.0331 39.0624 44.8758 38.634L43.9183 38.9856ZM43.9194 38.9887L43.9195 38.9888L44.8746 38.6307L44.8745 38.6305L43.9194 38.9887ZM43.055 34.4286C42.8268 36.0433 43.4065 37.5916 43.9182 38.9854L44.8757 38.6338C44.3452 37.1888 43.8788 35.8881 44.065 34.5714L43.055 34.4286ZM42.4044 36.0439C42.7753 35.5842 43.245 35.214 43.7786 34.9608L43.3414 34.0392C42.6692 34.3581 42.0776 34.8244 41.6105 35.4035L42.4044 36.0439ZM41.6366 37.6162C41.7711 37.041 42.0336 36.5036 42.4044 36.0439L41.6105 35.4035C41.1434 35.9825 40.8129 36.6594 40.6434 37.3838L41.6366 37.6162ZM41.2157 39.4292C41.3364 38.8081 41.4514 38.2187 41.6272 37.6508L40.6528 37.3492C40.458 37.9787 40.3333 38.6227 40.2144 39.2347L41.2157 39.4292ZM41.2098 39.4558L41.2098 39.4557L40.2203 39.2083L40.2203 39.2084L41.2098 39.4558ZM40.7134 41.5124C40.9464 40.819 41.0845 40.1047 41.2157 39.4293L40.2144 39.2348C40.081 39.9215 39.9544 40.5689 39.7466 41.1876L40.7134 41.5124ZM37.0735 45.8715C38.7605 44.8963 40.0485 43.3561 40.7097 41.5231L39.7503 41.1769C39.1707 42.7836 38.0418 44.1336 36.563 44.9884L37.0735 45.8715ZM31.4905 46.8521C33.4089 47.194 35.3864 46.8467 37.0735 45.8715L36.563 44.9884C35.0843 45.8431 33.351 46.1476 31.6695 45.8479L31.4905 46.8521ZM24.7413 40.5511C25.9565 43.383 28.2569 46.1065 31.4653 46.8469L31.6947 45.8531C28.9231 45.2135 26.8235 42.817 25.6787 40.1489L24.7413 40.5511ZM23.5453 32.6944C23.2952 35.37 23.7052 38.066 24.7393 40.5463L25.6807 40.1537C24.7108 37.8275 24.3263 35.2988 24.5609 32.7894L23.5453 32.6944ZM26.1738 25.1999C24.6979 27.4455 23.7954 30.0189 23.5453 32.6944L24.5609 32.7894C24.7955 30.2799 25.642 27.8663 27.0262 25.7601L26.1738 25.1999ZM22.9019 30.261C23.8857 28.5253 25.249 27.0343 26.8901 25.8995L26.3099 25.0605C24.5425 26.2827 23.0741 27.8886 22.0146 29.7581L22.9019 30.261ZM21.2089 35.9234C21.3394 33.9325 21.9182 31.9968 22.9019 30.261L22.0146 29.7581C20.955 31.6276 20.3316 33.7124 20.1911 35.8566L21.2089 35.9234ZM24.4197 47.2603C22.1262 43.9374 20.9973 39.9487 21.2093 35.9168L20.1907 35.8632C19.9669 40.1202 21.1588 44.3314 23.5803 47.8397L24.4197 47.2603ZM17.1521 39.2377C18.3769 42.757 20.667 45.8075 23.7046 47.9657L24.2954 47.1343C21.4305 45.0987 19.2706 42.2216 18.1155 38.9025L17.1521 39.2377ZM16.8703 28.3275C15.8289 31.9052 15.9274 35.7185 17.1521 39.2377L18.1155 38.9025C16.9604 35.5833 16.8675 31.9869 17.8497 28.6125L16.8703 28.3275ZM23.4272 19.4409C20.398 21.6641 18.1145 24.7539 16.8784 28.3022L17.8416 28.6378C19.0099 25.2844 21.1679 22.3643 24.0307 20.2632L23.4272 19.4409ZM33.8443 15.8502C30.0886 15.9656 26.4563 17.2176 23.4272 19.4409L24.0307 20.2632C26.8935 18.1621 30.3263 16.9788 33.8757 16.8698L33.8443 15.8502ZM20.3408 19.5657C24.2955 16.9567 29.1095 15.9869 33.7659 16.8612L33.9541 15.8588C29.0376 14.9356 23.9548 15.9596 19.7792 18.7143L20.3408 19.5657ZM14.7214 25.2231C16.1794 22.9665 18.0931 21.0398 20.3397 19.5665L19.7803 18.7135C17.4148 20.2648 15.3998 22.2935 13.8647 24.6695L14.7214 25.2231ZM11.8737 32.6697C12.2935 30.0161 13.2635 27.4796 14.7214 25.2231L13.8647 24.6695C12.3296 27.0455 11.3082 29.7163 10.8663 32.5103L11.8737 32.6697ZM12.4396 40.5716C11.6961 38.0039 11.5038 35.3081 11.8751 32.6608L10.8649 32.5192C10.4737 35.3088 10.6764 38.1496 11.4598 40.8553L12.4396 40.5716ZM16.1891 47.5603C14.4608 45.5209 13.1831 43.1393 12.4396 40.5716L11.4598 40.8553C12.2433 43.5611 13.5897 46.0707 15.4109 48.2197L16.1891 47.5603ZM9.12351 38.3593C10.4203 42.1114 12.587 45.5032 15.4462 48.2573L16.1538 47.5227C13.4106 44.8803 11.3318 41.626 10.0876 38.0261L9.12351 38.3593ZM7.98489 26.6695C7.4365 30.6014 7.82668 34.6072 9.12351 38.3593L10.0876 38.0261C8.84332 34.4262 8.46896 30.5828 8.99511 26.8104L7.98489 26.6695ZM12.5187 15.7581C10.1782 18.9881 8.62608 22.721 7.98659 26.6582L8.9934 26.8218C9.60737 23.0417 11.0975 19.4577 13.3446 16.3566L12.5187 15.7581ZM21.4655 8.05708C17.9232 9.89082 14.8592 12.5282 12.5187 15.7581L13.3446 16.3566C15.5918 13.2556 18.5335 10.7235 21.9345 8.96291L21.4655 8.05708ZM39.466 5.4373C33.3431 4.38977 27.0457 5.30517 21.4744 8.05259L21.9256 8.9674C27.3039 6.31513 33.3831 5.43144 39.294 6.44269L39.466 5.4373ZM56.256 14.878C53.9164 13.0832 51.1455 10.957 48.2599 9.1677C45.3803 7.38217 42.3418 5.90297 39.4615 5.43656L39.2985 6.44344C41.9791 6.87753 44.8806 8.27248 47.7223 10.0346C50.5579 11.7929 53.2894 13.8878 55.6352 15.6873L56.256 14.878ZM56.2564 14.8783L56.2551 14.8774L55.636 15.688L55.6373 15.6889L56.2564 14.8783ZM56.2584 14.8799L56.2567 14.8786L55.637 15.6887L55.6387 15.69L56.2584 14.8799ZM56.2602 14.8812L56.2587 14.8801L55.6384 15.6897L55.6398 15.6908L56.2602 14.8812ZM56.2632 14.8835L56.2607 14.8816L55.6392 15.6904L55.6417 15.6923L56.2632 14.8835ZM57.3093 15.6845C56.9711 15.4266 56.6221 15.1589 56.2629 14.8833L55.642 15.6926C56.0011 15.968 56.3512 16.2366 56.6907 16.4955L57.3093 15.6845ZM32.2633 0.5093C41.4401 0.989705 49.9347 5.56595 56.5655 16.357L57.4345 15.823C50.6453 4.77405 41.8599 -0.00971031 32.3167 -0.509305L32.2633 0.5093ZM18.8302 2.94225C23.072 1.13965 27.6632 0.308457 32.2678 0.509512L32.3122 -0.509517C27.5558 -0.717207 22.813 0.141417 18.4312 2.0035L18.8302 2.94225ZM7.75224 10.9276C10.8034 7.47321 14.5884 4.74484 18.8302 2.94225L18.4312 2.0035C14.0495 3.86558 10.1396 6.68398 6.98775 10.2524L7.75224 10.9276ZM54.71 53.25V26.78H53.69V53.25H54.71ZM61 52.74H54.2V53.76H61V52.74ZM60.49 41.68V53.25H61.51V41.68H60.49ZM66 41.17H61V42.19H66V41.17ZM65.49 37.17V41.68H66.51V37.17H65.49ZM61 37.68H66V36.66H61V37.68ZM60.49 31.12V37.17H61.51V31.12H60.49ZM66.51 30.61H61V31.63H66.51V30.61ZM66 26.78V31.12H67.02V26.78H66ZM54.2 27.29H66.51V26.27H54.2V27.29ZM70.6191 51.6891C71.4132 52.5812 72.4395 53.2353 73.5835 53.5785L73.8765 52.6015C72.9135 52.3126 72.0495 51.7619 71.3809 51.0109L70.6191 51.6891ZM69.0976 48.7527C69.3861 49.8234 69.9007 50.8197 70.6068 51.6747L71.3932 51.0253C70.78 50.2826 70.333 49.4172 70.0824 48.4873L69.0976 48.7527ZM68.6501 44.8907C68.6264 46.1897 68.7763 47.486 69.0956 48.7454L70.0843 48.4946C69.7873 47.3233 69.6479 46.1175 69.6699 44.9093L68.6501 44.8907ZM68.65 35.13V44.9H69.67V35.13H68.65ZM69.0957 31.2942C68.7761 32.5503 68.6262 33.8435 68.6501 35.1394L69.6699 35.1206C69.6477 33.9158 69.7871 32.7135 70.0842 31.5458L69.0957 31.2942ZM70.6082 28.3635C69.8969 29.2168 69.3811 30.2156 69.097 31.2896L70.083 31.5504C70.3291 30.6204 70.7758 29.7555 71.3918 29.0165L70.6082 28.3635ZM73.5329 26.5117C72.4146 26.8486 71.4088 27.4829 70.6228 28.3468L71.3772 29.0332C72.0389 28.3059 72.8857 27.772 73.8271 27.4883L73.5329 26.5117ZM81.8257 26.5113C79.1207 25.7048 76.2393 25.7048 73.5343 26.5113L73.8257 27.4887C76.3405 26.739 79.0195 26.739 81.5343 27.4887L81.8257 26.5113ZM84.7223 28.4024C83.9474 27.5251 82.9504 26.8729 81.8362 26.5145L81.5238 27.4855C82.4635 27.7878 83.3043 28.3378 83.9577 29.0776L84.7223 28.4024ZM86.2628 31.3386C85.9753 30.2605 85.4512 29.2599 84.7286 28.4097L83.9514 29.0703C84.5759 29.805 85.0288 30.6697 85.2772 31.6014L86.2628 31.3386ZM86.7199 35.1902C86.7458 33.8922 86.5922 32.5968 86.2634 31.3408L85.2766 31.5992C85.5816 32.7642 85.7241 33.9658 85.7001 35.1698L86.7199 35.1902ZM86.72 44.9V35.18H85.7V44.9H86.72ZM86.2634 48.7488C86.5922 47.4896 86.7458 46.191 86.7199 44.8898L85.7001 44.9102C85.7241 46.1176 85.5816 47.3226 85.2765 48.4912L86.2634 48.7488ZM84.7301 51.6786C85.4476 50.8267 85.9705 49.8285 86.2622 48.7536L85.2778 48.4864C85.025 49.418 84.5718 50.2832 83.9499 51.0214L84.7301 51.6786ZM81.8921 53.5735C82.9868 53.2065 83.9641 52.5549 84.724 51.6856L83.956 51.0144C83.3152 51.7474 82.491 52.2969 81.5679 52.6065L81.8921 53.5735ZM73.5869 53.5795C76.2924 54.3702 79.1676 54.3702 81.8731 53.5795L81.5869 52.6005C79.0683 53.3365 76.3917 53.3365 73.8731 52.6005L73.5869 53.5795ZM78.3606 48.517C78.1805 48.629 77.9703 48.6827 77.7586 48.6708L77.7014 49.6892C78.1227 49.7129 78.5411 49.606 78.8994 49.383L78.3606 48.517ZM78.6416 48.123C78.5919 48.2881 78.4868 48.431 78.344 48.5277L78.9159 49.3723C79.2529 49.1441 79.501 48.8067 79.6183 48.417L78.6416 48.123ZM78.8144 47.3929C78.7823 47.6353 78.7263 47.8739 78.6473 48.1053L79.6127 48.4347C79.7133 48.1399 79.7846 47.8359 79.8256 47.5271L78.8144 47.3929ZM78.8108 46.5794C78.8272 46.8629 78.8272 47.1471 78.8108 47.4306L79.8291 47.4894C79.8478 47.1667 79.8478 46.8433 79.8291 46.5206L78.8108 46.5794ZM78.81 33.47V46.55H79.83V33.47H78.81ZM78.8109 32.5898C78.8275 32.873 78.8275 33.157 78.8109 33.4402L79.8291 33.4998C79.848 33.1769 79.848 32.8531 79.8291 32.5302L78.8109 32.5898ZM78.648 31.9167C78.7275 32.1465 78.7832 32.3838 78.8141 32.625L79.8258 32.495C79.786 32.1846 79.7143 31.8791 79.612 31.5833L78.648 31.9167ZM78.34 31.4995C78.4837 31.5989 78.5909 31.7426 78.6453 31.9087L79.6147 31.5914C79.491 31.2135 79.247 30.8866 78.92 30.6605L78.34 31.4995ZM77.7507 31.3596C77.9672 31.3508 78.1816 31.4056 78.3673 31.5172L78.8926 30.6428C78.5362 30.4287 78.1248 30.3236 77.7093 30.3404L77.7507 31.3596ZM77.2103 31.4798C77.366 31.3967 77.5406 31.3553 77.717 31.3598L77.743 30.3402C77.3902 30.3312 77.041 30.4139 76.7297 30.5802L77.2103 31.4798ZM76.9156 31.7256C76.9877 31.6243 77.0838 31.5425 77.1954 31.4875L76.7447 30.5725C76.4814 30.7022 76.2545 30.8953 76.0844 31.1344L76.9156 31.7256ZM76.7643 32.1463C76.7881 31.9889 76.8445 31.8383 76.9301 31.7041L76.0699 31.1559C75.9079 31.4102 75.8008 31.6956 75.7557 31.9937L76.7643 32.1463ZM76.6687 32.7759C76.6828 32.5767 76.7123 32.3789 76.757 32.1842L75.763 31.9558C75.7064 32.2019 75.669 32.4522 75.6513 32.7041L76.6687 32.7759ZM76.67 47.27V32.74H75.65V47.27H76.67ZM76.7567 47.8242C76.7116 47.6307 76.6822 47.4339 76.6689 47.2358L75.6512 47.3043C75.6682 47.5574 75.7057 47.8087 75.7633 48.0558L76.7567 47.8242ZM76.9255 48.2988C76.8406 48.1705 76.7859 48.0246 76.7655 47.8721L75.7545 48.0079C75.7955 48.3128 75.9049 48.6045 76.0745 48.8612L76.9255 48.2988ZM77.2075 48.5487C77.0928 48.4883 76.9947 48.4007 76.9219 48.2935L76.0781 48.8666C76.245 49.1122 76.4697 49.313 76.7325 49.4513L77.2075 48.5487ZM77.6967 48.67C77.527 48.6711 77.3597 48.6299 77.21 48.55L76.73 49.45C77.0294 49.6097 77.3639 49.6922 77.7033 49.69L77.6967 48.67ZM77.73 48.67H77.7V49.69H77.73V48.67ZM89.51 53.25V26.78H88.49V53.25H89.51ZM95.68 52.74H89V53.76H95.68V52.74ZM95.17 41.9V53.25H96.19V41.9H95.17ZM99.12 41.39H95.68V42.41H99.12V41.39ZM99.63 53.25V41.9H98.61V53.25H99.63ZM105.91 52.74H99.12V53.76H105.91V52.74ZM105.4 26.78V53.25H106.42V26.78H105.4ZM99.17 27.29H105.91V26.27H99.17V27.29ZM99.68 37.25V26.78H98.66V37.25H99.68ZM95.73 37.76H99.17V36.74H95.73V37.76ZM95.22 26.78V37.25H96.24V26.78H95.22ZM89 27.29H95.73V26.27H89V27.29ZM110.057 51.6868C110.826 52.5609 111.815 53.2129 112.921 53.5747L113.239 52.6053C112.305 52.3001 111.471 51.7503 110.823 51.0132L110.057 51.6868ZM108.509 48.7565C108.807 49.8298 109.332 50.8264 110.05 51.6785L110.83 51.0215C110.207 50.2814 109.75 49.4158 109.491 48.4835L108.509 48.7565ZM108.06 44.8907C108.036 46.1897 108.186 47.486 108.506 48.7454L109.494 48.4946C109.197 47.3233 109.058 46.1175 109.08 44.9093L108.06 44.8907ZM108.06 35.13V44.9H109.08V35.13H108.06ZM108.506 31.2942C108.186 32.5503 108.036 33.8435 108.06 35.1394L109.08 35.1206C109.058 33.9158 109.197 32.7135 109.494 31.5458L108.506 31.2942ZM110.018 28.3635C109.307 29.2168 108.791 30.2156 108.507 31.2896L109.493 31.5504C109.739 30.6204 110.186 29.7555 110.802 29.0165L110.018 28.3635ZM112.841 26.5155C111.76 26.8707 110.791 27.5029 110.031 28.3491L110.789 29.0309C111.431 28.3172 112.248 27.784 113.159 27.4845L112.841 26.5155ZM121.146 26.5113C118.441 25.7048 115.559 25.7048 112.854 26.5113L113.146 27.4887C115.661 26.739 118.339 26.739 120.854 27.4887L121.146 26.5113ZM124.042 28.4024C123.267 27.5251 122.27 26.8729 121.156 26.5145L120.844 27.4855C121.784 27.7878 122.624 28.3378 123.278 29.0776L124.042 28.4024ZM125.583 31.3386C125.295 30.2605 124.771 29.2599 124.049 28.4097L123.271 29.0703C123.896 29.805 124.349 30.6697 124.597 31.6014L125.583 31.3386ZM126.04 35.1902C126.066 33.8922 125.912 32.5968 125.583 31.3408L124.597 31.5992C124.902 32.7642 125.044 33.9658 125.02 35.1698L126.04 35.1902ZM126.04 44.9V35.18H125.02V44.9H126.04ZM125.583 48.7488C125.912 47.4896 126.066 46.191 126.04 44.8899L125.02 44.9102C125.044 46.1176 124.902 47.3226 124.597 48.4912L125.583 48.7488ZM124.05 51.6786C124.768 50.8267 125.29 49.8285 125.582 48.7536L124.598 48.4864C124.345 49.418 123.892 50.2832 123.27 51.0214L124.05 51.6786ZM121.246 53.5723C122.329 53.2002 123.294 52.5489 124.045 51.6844L123.275 51.0156C122.642 51.7447 121.827 52.2938 120.914 52.6077L121.246 53.5723ZM112.937 53.5795C115.642 54.3702 118.518 54.3702 121.223 53.5795L120.937 52.6005C118.418 53.3365 115.742 53.3365 113.223 52.6005L112.937 53.5795ZM117.754 48.553C117.567 48.6561 117.352 48.6982 117.139 48.6734L117.021 49.6866C117.444 49.7359 117.872 49.6522 118.246 49.447L117.754 48.553ZM118.012 48.173C117.962 48.3381 117.857 48.481 117.714 48.5777L118.286 49.4223C118.623 49.1941 118.871 48.8568 118.988 48.4671L118.012 48.173ZM118.184 47.4429C118.152 47.6853 118.096 47.9239 118.017 48.1553L118.983 48.4847C119.083 48.1899 119.155 47.8859 119.196 47.5771L118.184 47.4429ZM118.181 46.6294C118.197 46.9129 118.197 47.1971 118.181 47.4806L119.199 47.5394C119.218 47.2167 119.218 46.8933 119.199 46.5706L118.181 46.6294ZM118.18 33.47V46.6H119.2V33.47H118.18ZM118.181 32.5898C118.197 32.873 118.197 33.157 118.181 33.4402L119.199 33.4998C119.218 33.1769 119.218 32.8531 119.199 32.5302L118.181 32.5898ZM118.018 31.9167C118.098 32.1465 118.153 32.3838 118.184 32.625L119.196 32.495C119.156 32.1846 119.084 31.8791 118.982 31.5833L118.018 31.9167ZM117.71 31.4995C117.854 31.5989 117.961 31.7426 118.015 31.9087L118.985 31.5913C118.861 31.2135 118.617 30.8866 118.29 30.6605L117.71 31.4995ZM117.121 31.3596C117.337 31.3508 117.552 31.4056 117.737 31.5172L118.263 30.6428C117.906 30.4287 117.495 30.3236 117.079 30.3404L117.121 31.3596ZM116.58 31.4798C116.736 31.3967 116.911 31.3553 117.087 31.3598L117.113 30.3402C116.76 30.3312 116.411 30.4139 116.1 30.5802L116.58 31.4798ZM116.286 31.7256C116.358 31.6243 116.454 31.5425 116.565 31.4875L116.115 30.5725C115.851 30.7022 115.624 30.8953 115.454 31.1344L116.286 31.7256ZM116.134 32.1463C116.158 31.9889 116.215 31.8383 116.3 31.7041L115.44 31.1559C115.278 31.4102 115.171 31.6956 115.126 31.9937L116.134 32.1463ZM116.039 32.7759C116.053 32.5767 116.082 32.3789 116.127 32.1842L115.133 31.9558C115.076 32.2019 115.039 32.4522 115.021 32.7041L116.039 32.7759ZM116.04 47.27V32.74H115.02V47.27H116.04ZM116.127 47.8242C116.082 47.6307 116.052 47.4339 116.039 47.2358L115.021 47.3043C115.038 47.5574 115.076 47.8087 115.133 48.0558L116.127 47.8242ZM116.295 48.2988C116.211 48.1704 116.156 48.0246 116.135 47.8721L115.125 48.0079C115.165 48.3128 115.275 48.6046 115.445 48.8612L116.295 48.2988ZM116.577 48.5487C116.463 48.4883 116.365 48.4007 116.292 48.2935L115.448 48.8666C115.615 49.1122 115.84 49.313 116.103 49.4513L116.577 48.5487ZM117.053 48.67C116.888 48.6689 116.726 48.6277 116.58 48.55L116.1 49.45C116.391 49.6055 116.716 49.6878 117.047 49.69L117.053 48.67ZM117.08 48.67H117.05V49.69H117.08V48.67ZM130.747 53.1937L127.807 26.7237L126.793 26.8363L129.733 53.3063L130.747 53.1937ZM136.339 52.73L130.239 52.74L130.241 53.76L136.341 53.75L136.339 52.73ZM137.573 38.241L135.833 53.181L136.847 53.299L138.587 38.359L137.573 38.241ZM140.506 53.175L138.586 38.235L137.574 38.365L139.494 53.305L140.506 53.175ZM146 52.73H140V53.75H146V52.73ZM148.493 26.7126L145.493 53.1826L146.507 53.2974L149.507 26.8274L148.493 26.7126ZM143.29 27.28H149V26.26H143.29V27.28ZM142.508 41.046L143.798 26.816L142.782 26.724L141.492 40.954L142.508 41.046ZM139.774 26.8412L141.494 41.0612L142.506 40.9388L140.786 26.7188L139.774 26.8412ZM135.86 27.29H140.28V26.27H135.86V27.29ZM134.777 41.2061L136.367 26.8361L135.353 26.7239L133.763 41.0939L134.777 41.2061ZM132.492 26.8249L133.762 41.1949L134.778 41.1051L133.508 26.7351L132.492 26.8249ZM127.3 27.29H133V26.27H127.3V27.29Z" fill="url(#paint1_radial_1_13)"/>
<path d="M156 19.7V22H155.35V16.41H156.89C157.434 16.3659 157.976 16.5069 158.43 16.81C158.6 16.9558 158.732 17.1395 158.818 17.3463C158.903 17.5531 158.938 17.7771 158.92 18C158.935 18.3434 158.83 18.6813 158.624 18.9565C158.418 19.2317 158.124 19.4273 157.79 19.51L159.34 22H158.56L157.2 19.7H156ZM156 19.14H156.9C157.256 19.1661 157.609 19.0671 157.9 18.86C158.012 18.7568 158.1 18.6292 158.155 18.4871C158.211 18.345 158.233 18.192 158.22 18.04C158.23 17.8888 158.205 17.7373 158.148 17.597C158.091 17.4567 158.003 17.3312 157.89 17.23C157.572 17.0453 157.206 16.9616 156.84 16.99H156V19.14Z" fill="#E07E37"/>
<path d="M157.35 23.88C159.918 23.88 162 21.7981 162 19.23C162 16.6619 159.918 14.58 157.35 14.58C154.782 14.58 152.7 16.6619 152.7 19.23C152.7 21.7981 154.782 23.88 157.35 23.88Z" stroke="#E07E37" stroke-width="0.89" stroke-miterlimit="10"/>
</g>
<defs>
<radialGradient id="paint0_radial_1_13" cx="0" cy="0" r="1" gradientUnits="userSpaceOnUse" gradientTransform="translate(9.28628e-06 13) rotate(11.3839) scale(151.99 107.283)">
<stop stop-color="#FDE901"/>
<stop offset="0.366447" stop-color="#FF7306"/>
</radialGradient>
<radialGradient id="paint1_radial_1_13" cx="0" cy="0" r="1" gradientUnits="userSpaceOnUse" gradientTransform="translate(9.28628e-06 13) rotate(11.3839) scale(151.99 107.283)">
<stop stop-color="#FDE901"/>
<stop offset="0.366447" stop-color="#FF7306"/>
</radialGradient>
<clipPath id="clip0_1_13">
<rect width="162.44" height="60.67" fill="white"/>
</clipPath>
</defs>
</svg>
